<?xml version="1.0" encoding="UTF-8" standalone="no"?>
<svg width="1200" height="800" xmlns="http://www.w3.org/2000/svg">
  <!-- Background gradient -->
  <defs>
    <linearGradient id="bgGradient" x1="0%" y1="0%" x2="100%" y2="100%">
      <stop offset="0%" stop-color="#f5f9ff" stop-opacity="1"/>
      <stop offset="100%" stop-color="#ffffff" stop-opacity="0.7"/>
    </linearGradient>
    
    <!-- Abstract data patterns -->
    <pattern id="dataPattern" x="0" y="0" width="100" height="100" patternUnits="userSpaceOnUse">
      <circle cx="50" cy="50" r="1.5" fill="#4F8BF9" opacity="0.3"/>
      <circle cx="20" cy="30" r="1" fill="#4F8BF9" opacity="0.2"/>
      <circle cx="80" cy="70" r="1" fill="#4F8BF9" opacity="0.2"/>
      <circle cx="10" cy="90" r="1.5" fill="#4F8BF9" opacity="0.3"/>
      <circle cx="90" cy="10" r="1" fill="#4F8BF9" opacity="0.2"/>
    </pattern>
  </defs>
  
  <!-- Main background -->
  <rect width="100%" height="100%" fill="url(#bgGradient)"/>
  
  <!-- Data pattern overlay -->
  <rect width="100%" height="100%" fill="url(#dataPattern)"/>
  
  <!-- Abstract line chart -->
  <path d="M0,600 Q300,550 450,650 T900,550 T1200,500" 
        fill="none" stroke="#4F8BF9" stroke-width="1.5" opacity="0.1" 
        stroke-dasharray="5,5"/>
  <path d="M0,650 Q250,600 500,700 T1000,600 T1200,550" 
        fill="none" stroke="#4F8BF9" stroke-width="1.5" opacity="0.1"
        stroke-dasharray="5,5"/>
  
  <!-- Abstract bar chart -->
  <g opacity="0.07">
    <rect x="100" y="700" width="30" height="100" rx="2" fill="#4F8BF9" />
    <rect x="150" y="650" width="30" height="150" rx="2" fill="#4F8BF9" />
    <rect x="200" y="600" width="30" height="200" rx="2" fill="#4F8BF9" />
    <rect x="250" y="680" width="30" height="120" rx="2" fill="#4F8BF9" />
    <rect x="300" y="630" width="30" height="170" rx="2" fill="#4F8BF9" />
  </g>
  
  <!-- Abstract scatter plot -->
  <g opacity="0.1">
    <circle cx="850" cy="200" r="4" fill="#4F8BF9" />
    <circle cx="900" cy="250" r="3" fill="#4F8BF9" />
    <circle cx="950" cy="180" r="5" fill="#4F8BF9" />
    <circle cx="1000" cy="220" r="4" fill="#4F8BF9" />
    <circle cx="1050" cy="170" r="3" fill="#4F8BF9" />
    <circle cx="980" cy="190" r="5" fill="#4F8BF9" />
    <circle cx="920" cy="230" r="4" fill="#4F8BF9" />
    <circle cx="870" cy="210" r="3" fill="#4F8BF9" />
  </g>
  
  <!-- Abstract pie chart -->
  <g transform="translate(150,200)">
    <path d="M0,0 L30,-50 A50,50 0 0,1 50,0 Z" fill="#4F8BF9" opacity="0.05"/>
    <path d="M0,0 L50,0 A50,50 0 0,1 0,50 Z" fill="#4F8BF9" opacity="0.1"/>
    <path d="M0,0 L0,50 A50,50 0 0,1 -50,0 Z" fill="#4F8BF9" opacity="0.07"/>
    <path d="M0,0 L-50,0 A50,50 0 0,1 -30,-50 Z" fill="#4F8BF9" opacity="0.05"/>
    <path d="M0,0 L-30,-50 A50,50 0 0,1 30,-50 Z" fill="#4F8BF9" opacity="0.08"/>
  </g>
  
  <!-- Abstract data flow lines -->
  <g opacity="0.04">
    <path d="M300,100 C400,50 450,120 550,80 S650,150 750,100" stroke="#4F8BF9" stroke-width="2" fill="none"/>
    <path d="M250,150 C350,100 400,170 500,130 S600,200 700,150" stroke="#4F8BF9" stroke-width="1.5" fill="none"/>
    <path d="M350,50 C450,0 500,70 600,30 S700,100 800,50" stroke="#4F8BF9" stroke-width="1" fill="none"/>
  </g>
  
  <!-- Grid pattern -->
  <g opacity="0.03">
    <line x1="0" y1="100" x2="1200" y2="100" stroke="#4F8BF9" stroke-width="0.5"/>
    <line x1="0" y1="200" x2="1200" y2="200" stroke="#4F8BF9" stroke-width="0.5"/>
    <line x1="0" y1="300" x2="1200" y2="300" stroke="#4F8BF9" stroke-width="0.5"/>
    <line x1="0" y1="400" x2="1200" y2="400" stroke="#4F8BF9" stroke-width="0.5"/>
    <line x1="0" y1="500" x2="1200" y2="500" stroke="#4F8BF9" stroke-width="0.5"/>
    <line x1="0" y1="600" x2="1200" y2="600" stroke="#4F8BF9" stroke-width="0.5"/>
    <line x1="0" y1="700" x2="1200" y2="700" stroke="#4F8BF9" stroke-width="0.5"/>
    
    <line x1="100" y1="0" x2="100" y2="800" stroke="#4F8BF9" stroke-width="0.5"/>
    <line x1="200" y1="0" x2="200" y2="800" stroke="#4F8BF9" stroke-width="0.5"/>
    <line x1="300" y1="0" x2="300" y2="800" stroke="#4F8BF9" stroke-width="0.5"/>
    <line x1="400" y1="0" x2="400" y2="800" stroke="#4F8BF9" stroke-width="0.5"/>
    <line x1="500" y1="0" x2="500" y2="800" stroke="#4F8BF9" stroke-width="0.5"/>
    <line x1="600" y1="0" x2="600" y2="800" stroke="#4F8BF9" stroke-width="0.5"/>
    <line x1="700" y1="0" x2="700" y2="800" stroke="#4F8BF9" stroke-width="0.5"/>
    <line x1="800" y1="0" x2="800" y2="800" stroke="#4F8BF9" stroke-width="0.5"/>
    <line x1="900" y1="0" x2="900" y2="800" stroke="#4F8BF9" stroke-width="0.5"/>
    <line x1="1000" y1="0" x2="1000" y2="800" stroke="#4F8BF9" stroke-width="0.5"/>
    <line x1="1100" y1="0" x2="1100" y2="800" stroke="#4F8BF9" stroke-width="0.5"/>
  </g>
</svg>