<?xml version="1.0" encoding="UTF-8" standalone="no"?>
<svg width="1600" height="1200" viewBox="0 0 1600 1200" xmlns="http://www.w3.org/2000/svg">
  <!-- Main background -->
  <rect x="0" y="0" width="1600" height="1200" fill="#FFFFFF"/>
  
  <!-- Subtle geometric pattern -->
  <g opacity="0.04">
    <!-- Horizontal lines -->
    <line x1="0" y1="100" x2="1600" y2="100" stroke="#000000" stroke-width="1"/>
    <line x1="0" y1="300" x2="1600" y2="300" stroke="#000000" stroke-width="1"/>
    <line x1="0" y1="500" x2="1600" y2="500" stroke="#000000" stroke-width="1"/>
    <line x1="0" y1="700" x2="1600" y2="700" stroke="#000000" stroke-width="1"/>
    <line x1="0" y1="900" x2="1600" y2="900" stroke="#000000" stroke-width="1"/>
    <line x1="0" y1="1100" x2="1600" y2="1100" stroke="#000000" stroke-width="1"/>
    
    <!-- Vertical lines -->
    <line x1="100" y1="0" x2="100" y2="1200" stroke="#000000" stroke-width="1"/>
    <line x1="300" y1="0" x2="300" y2="1200" stroke="#000000" stroke-width="1"/>
    <line x1="500" y1="0" x2="500" y2="1200" stroke="#000000" stroke-width="1"/>
    <line x1="700" y1="0" x2="700" y2="1200" stroke="#000000" stroke-width="1"/>
    <line x1="900" y1="0" x2="900" y2="1200" stroke="#000000" stroke-width="1"/>
    <line x1="1100" y1="0" x2="1100" y2="1200" stroke="#000000" stroke-width="1"/>
    <line x1="1300" y1="0" x2="1300" y2="1200" stroke="#000000" stroke-width="1"/>
    <line x1="1500" y1="0" x2="1500" y2="1200" stroke="#000000" stroke-width="1"/>
  </g>
  
  <!-- Top right corner accent -->
  <circle cx="1550" cy="50" r="300" fill="#F5F5F5" opacity="0.7"/>
  
  <!-- Bottom left corner accent -->
  <circle cx="50" cy="1150" r="300" fill="#F0F0F0" opacity="0.7"/>
  
  <!-- Subtle shapes -->
  <g opacity="0.05">
    <rect x="100" y="200" width="200" height="200" rx="20" ry="20" fill="#333333"/>
    <rect x="1300" y="800" width="200" height="200" rx="20" ry="20" fill="#333333"/>
    <circle cx="800" cy="600" r="100" fill="#333333"/>
    <rect x="600" y="900" width="400" height="20" rx="10" ry="10" fill="#333333"/>
    <rect x="600" y="300" width="400" height="20" rx="10" ry="10" fill="#333333"/>
  </g>
  
  <!-- Dotted pattern -->
  <g opacity="0.04">
    <circle cx="200" cy="200" r="3" fill="#000000"/>
    <circle cx="200" cy="400" r="3" fill="#000000"/>
    <circle cx="200" cy="600" r="3" fill="#000000"/>
    <circle cx="200" cy="800" r="3" fill="#000000"/>
    <circle cx="200" cy="1000" r="3" fill="#000000"/>
    
    <circle cx="400" cy="200" r="3" fill="#000000"/>
    <circle cx="400" cy="400" r="3" fill="#000000"/>
    <circle cx="400" cy="600" r="3" fill="#000000"/>
    <circle cx="400" cy="800" r="3" fill="#000000"/>
    <circle cx="400" cy="1000" r="3" fill="#000000"/>
    
    <circle cx="600" cy="200" r="3" fill="#000000"/>
    <circle cx="600" cy="400" r="3" fill="#000000"/>
    <circle cx="600" cy="600" r="3" fill="#000000"/>
    <circle cx="600" cy="800" r="3" fill="#000000"/>
    <circle cx="600" cy="1000" r="3" fill="#000000"/>
    
    <circle cx="800" cy="200" r="3" fill="#000000"/>
    <circle cx="800" cy="400" r="3" fill="#000000"/>
    <circle cx="800" cy="600" r="3" fill="#000000"/>
    <circle cx="800" cy="800" r="3" fill="#000000"/>
    <circle cx="800" cy="1000" r="3" fill="#000000"/>
    
    <circle cx="1000" cy="200" r="3" fill="#000000"/>
    <circle cx="1000" cy="400" r="3" fill="#000000"/>
    <circle cx="1000" cy="600" r="3" fill="#000000"/>
    <circle cx="1000" cy="800" r="3" fill="#000000"/>
    <circle cx="1000" cy="1000" r="3" fill="#000000"/>
    
    <circle cx="1200" cy="200" r="3" fill="#000000"/>
    <circle cx="1200" cy="400" r="3" fill="#000000"/>
    <circle cx="1200" cy="600" r="3" fill="#000000"/>
    <circle cx="1200" cy="800" r="3" fill="#000000"/>
    <circle cx="1200" cy="1000" r="3" fill="#000000"/>
    
    <circle cx="1400" cy="200" r="3" fill="#000000"/>
    <circle cx="1400" cy="400" r="3" fill="#000000"/>
    <circle cx="1400" cy="600" r="3" fill="#000000"/>
    <circle cx="1400" cy="800" r="3" fill="#000000"/>
    <circle cx="1400" cy="1000" r="3" fill="#000000"/>
  </g>
</svg>