<?xml version="1.0" encoding="UTF-8" standalone="no"?>
<svg width="300" height="300" viewBox="0 0 300 300" xmlns="http://www.w3.org/2000/svg">
  <defs>
    <linearGradient id="logoGradient" x1="0%" y1="0%" x2="100%" y2="100%">
      <stop offset="0%" stop-color="#4F8BF9" />
      <stop offset="100%" stop-color="#1C63D4" />
    </linearGradient>
    
    <filter id="glow" x="-20%" y="-20%" width="140%" height="140%">
      <feGaussianBlur stdDeviation="5" result="blur" />
      <feComposite in="SourceGraphic" in2="blur" operator="over" />
    </filter>
  </defs>
  
  <!-- Main circular background -->
  <circle cx="150" cy="150" r="120" fill="#0A1128" stroke="url(#logoGradient)" stroke-width="4" />
  
  <!-- Data visualization elements -->
  
  <!-- Bar chart -->
  <g transform="translate(110, 120)">
    <rect x="0" y="0" width="15" height="60" rx="2" fill="url(#logoGradient)" />
    <rect x="25" y="20" width="15" height="40" rx="2" fill="url(#logoGradient)" />
    <rect x="50" y="10" width="15" height="50" rx="2" fill="url(#logoGradient)" />
    <rect x="75" y="30" width="15" height="30" rx="2" fill="url(#logoGradient)" />
  </g>
  
  <!-- Analytics grid and data points -->
  <g opacity="0.9">
    <!-- Horizontal grid lines -->
    <line x1="90" y1="200" x2="210" y2="200" stroke="#4F8BF9" stroke-width="1" opacity="0.2" />
    <line x1="90" y1="180" x2="210" y2="180" stroke="#4F8BF9" stroke-width="1" opacity="0.2" />
    <line x1="90" y1="160" x2="210" y2="160" stroke="#4F8BF9" stroke-width="1" opacity="0.2" />
    <line x1="90" y1="140" x2="210" y2="140" stroke="#4F8BF9" stroke-width="1" opacity="0.2" />
    <line x1="90" y1="120" x2="210" y2="120" stroke="#4F8BF9" stroke-width="1" opacity="0.2" />
    <line x1="90" y1="100" x2="210" y2="100" stroke="#4F8BF9" stroke-width="1" opacity="0.2" />
    
    <!-- Line chart with glowing effect -->
    <path d="M90,180 L110,170 L130,190 L150,130 L170,150 L190,120 L210,140" 
          fill="none" 
          stroke="url(#logoGradient)" 
          stroke-width="3" 
          stroke-linecap="round"
          filter="url(#glow)" />
    
    <!-- Data points -->
    <circle cx="90" cy="180" r="4" fill="#FFFFFF" />
    <circle cx="110" cy="170" r="4" fill="#FFFFFF" />
    <circle cx="130" cy="190" r="4" fill="#FFFFFF" />
    <circle cx="150" cy="130" r="4" fill="#FFFFFF" />
    <circle cx="170" cy="150" r="4" fill="#FFFFFF" />
    <circle cx="190" cy="120" r="4" fill="#FFFFFF" />
    <circle cx="210" cy="140" r="4" fill="#FFFFFF" />
  </g>
  
  <!-- Small decorative circle -->
  <circle cx="220" cy="80" r="8" fill="url(#logoGradient)" opacity="0.7" />
  
  <!-- Small decorative square -->
  <rect x="80" y="80" width="16" height="16" rx="3" fill="url(#logoGradient)" opacity="0.7" transform="rotate(45, 88, 88)" />
  
  <!-- Text elements would be added here in a real implementation -->
  
  <!-- Outer ring with dashed stroke -->
  <circle cx="150" cy="150" r="140" fill="none" stroke="url(#logoGradient)" stroke-width="1" stroke-dasharray="4,4" />
</svg>