<?xml version="1.0" encoding="UTF-8" standalone="no"?>
<svg width="1600" height="1000" viewBox="0 0 1600 1000" xmlns="http://www.w3.org/2000/svg">
  <defs>
    <linearGradient id="bgGradient" x1="0%" y1="0%" x2="100%" y2="100%">
      <stop offset="0%" stop-color="#0A1128" />
      <stop offset="100%" stop-color="#001F54" />
    </linearGradient>
    <linearGradient id="glowGradient" x1="0%" y1="0%" x2="100%" y2="100%">
      <stop offset="0%" stop-color="#4F8BF9" stop-opacity="0.1" />
      <stop offset="100%" stop-color="#4F8BF9" stop-opacity="0" />
    </linearGradient>
    <filter id="blur" x="-50%" y="-50%" width="200%" height="200%">
      <feGaussianBlur stdDeviation="50" />
    </filter>
  </defs>
  
  <!-- Background -->
  <rect width="100%" height="100%" fill="url(#bgGradient)" />
  
  <!-- Grid pattern -->
  <pattern id="grid" width="50" height="50" patternUnits="userSpaceOnUse">
    <path d="M 50 0 L 0 0 0 50" fill="none" stroke="#4F8BF9" stroke-width="0.3" stroke-opacity="0.1" />
  </pattern>
  <rect width="100%" height="100%" fill="url(#grid)" />
  
  <!-- Abstract data visualization elements -->
  
  <!-- Glowing circles -->
  <circle cx="400" cy="300" r="200" fill="url(#glowGradient)" filter="url(#blur)" opacity="0.7" />
  <circle cx="1200" cy="700" r="250" fill="url(#glowGradient)" filter="url(#blur)" opacity="0.5" />
  
  <!-- Data points and connections -->
  <g opacity="0.15">
    <!-- Node group 1 -->
    <circle cx="200" cy="200" r="4" fill="#4F8BF9" />
    <circle cx="250" cy="220" r="4" fill="#4F8BF9" />
    <circle cx="290" cy="180" r="4" fill="#4F8BF9" />
    <circle cx="230" cy="150" r="4" fill="#4F8BF9" />
    <circle cx="310" cy="230" r="4" fill="#4F8BF9" />
    
    <!-- Connections -->
    <line x1="200" y1="200" x2="250" y2="220" stroke="#4F8BF9" stroke-width="1" />
    <line x1="250" y1="220" x2="290" y2="180" stroke="#4F8BF9" stroke-width="1" />
    <line x1="290" y1="180" x2="230" y2="150" stroke="#4F8BF9" stroke-width="1" />
    <line x1="230" y1="150" x2="200" y2="200" stroke="#4F8BF9" stroke-width="1" />
    <line x1="250" y1="220" x2="310" y2="230" stroke="#4F8BF9" stroke-width="1" />
    <line x1="290" y1="180" x2="310" y2="230" stroke="#4F8BF9" stroke-width="1" />
    
    <!-- Node group 2 -->
    <circle cx="1000" cy="300" r="4" fill="#4F8BF9" />
    <circle cx="1050" cy="280" r="4" fill="#4F8BF9" />
    <circle cx="1080" cy="340" r="4" fill="#4F8BF9" />
    <circle cx="1030" cy="370" r="4" fill="#4F8BF9" />
    <circle cx="980" cy="330" r="4" fill="#4F8BF9" />
    
    <!-- Connections -->
    <line x1="1000" y1="300" x2="1050" y2="280" stroke="#4F8BF9" stroke-width="1" />
    <line x1="1050" y1="280" x2="1080" y2="340" stroke="#4F8BF9" stroke-width="1" />
    <line x1="1080" y1="340" x2="1030" y2="370" stroke="#4F8BF9" stroke-width="1" />
    <line x1="1030" y1="370" x2="980" y2="330" stroke="#4F8BF9" stroke-width="1" />
    <line x1="980" y1="330" x2="1000" y2="300" stroke="#4F8BF9" stroke-width="1" />
  </g>
  
  <!-- Charts and graphs -->
  <g opacity="0.2">
    <!-- Bar chart -->
    <rect x="400" y="800" width="15" height="40" fill="#4F8BF9" />
    <rect x="425" y="800" width="15" height="60" fill="#4F8BF9" />
    <rect x="450" y="800" width="15" height="30" fill="#4F8BF9" />
    <rect x="475" y="800" width="15" height="50" fill="#4F8BF9" />
    <rect x="500" y="800" width="15" height="70" fill="#4F8BF9" />
    <rect x="525" y="800" width="15" height="45" fill="#4F8BF9" />
    
    <!-- Line chart -->
    <polyline points="600,750 630,730 660,760 690,720 720,740 750,700" fill="none" stroke="#4F8BF9" stroke-width="3" />
    
    <!-- Pie chart -->
    <path d="M 900 750 L 900 700 A 50 50 0 0 1 943.3 725 z" fill="#4F8BF9" />
    <path d="M 900 750 L 943.3 725 A 50 50 0 0 1 925 775 z" fill="#4F8BF9" opacity="0.7" />
    <path d="M 900 750 L 925 775 A 50 50 0 0 1 875 775 z" fill="#4F8BF9" opacity="0.5" />
    <path d="M 900 750 L 875 775 A 50 50 0 0 1 870 745 z" fill="#4F8BF9" opacity="0.3" />
    <path d="M 900 750 L 870 745 A 50 50 0 0 1 900 700 z" fill="#4F8BF9" opacity="0.2" />
  </g>
  
  <!-- Large decorative graph -->
  <g opacity="0.07">
    <path d="M 0 600 C 200 550, 400 650, 600 600 C 800 550, 1000 650, 1200 600 C 1400 550, 1600 650, 1800 600" fill="none" stroke="#FFFFFF" stroke-width="4" />
    <path d="M 0 620 C 200 570, 400 670, 600 620 C 800 570, 1000 670, 1200 620 C 1400 570, 1600 670, 1800 620" fill="none" stroke="#4F8BF9" stroke-width="2" />
  </g>
  
  <!-- Scattered data points -->
  <g opacity="0.2">
    <circle cx="150" cy="450" r="2" fill="#FFFFFF" />
    <circle cx="380" cy="520" r="2" fill="#FFFFFF" />
    <circle cx="420" cy="380" r="2" fill="#FFFFFF" />
    <circle cx="560" cy="420" r="2" fill="#FFFFFF" />
    <circle cx="720" cy="510" r="2" fill="#FFFFFF" />
    <circle cx="840" cy="400" r="2" fill="#FFFFFF" />
    <circle cx="920" cy="480" r="2" fill="#FFFFFF" />
    <circle cx="1050" cy="530" r="2" fill="#FFFFFF" />
    <circle cx="1150" cy="470" r="2" fill="#FFFFFF" />
    <circle cx="1270" cy="390" r="2" fill="#FFFFFF" />
    <circle cx="1350" cy="450" r="2" fill="#FFFFFF" />
    <circle cx="1420" cy="520" r="2" fill="#FFFFFF" />
    <circle cx="1500" cy="480" r="2" fill="#FFFFFF" />
  </g>
  
  <!-- Abstract floating shapes -->
  <g opacity="0.05">
    <rect x="100" y="100" width="120" height="80" rx="10" fill="#FFFFFF" />
    <rect x="1300" y="200" width="100" height="60" rx="10" fill="#FFFFFF" />
    <rect x="300" y="650" width="80" height="40" rx="10" fill="#FFFFFF" />
    <rect x="1200" y="150" width="60" height="30" rx="5" fill="#FFFFFF" />
    <rect x="1100" y="800" width="140" height="90" rx="10" fill="#FFFFFF" />
  </g>
</svg>