<?xml version="1.0" encoding="UTF-8" standalone="no"?>
<svg width="400" height="250" viewBox="0 0 400 250" xmlns="http://www.w3.org/2000/svg">
  <!-- Background -->
  <rect x="0" y="0" width="400" height="250" rx="15" ry="15" fill="#1E1E2E" opacity="0.8"/>
  
  <!-- Table Structure -->
  <rect x="30" y="40" width="340" height="170" rx="5" ry="5" fill="#2D2D44" stroke="#4F8BF9" stroke-width="1" opacity="0.9"/>
  
  <!-- Table Header -->
  <rect x="30" y="40" width="340" height="30" rx="5" ry="5" fill="#4F8BF9" opacity="0.7"/>
  
  <!-- Header Text -->
  <text x="45" y="60" font-family="Arial" font-size="12" fill="white">Product</text>
  <text x="130" y="60" font-family="Arial" font-size="12" fill="white">Category</text>
  <text x="215" y="60" font-family="Arial" font-size="12" fill="white">Sales</text>
  <text x="285" y="60" font-family="Arial" font-size="12" fill="white">Growth</text>
  
  <!-- Row Highlighting -->
  <rect x="30" y="70" width="340" height="28" fill="#363652" opacity="0.5"/>
  <rect x="30" y="98" width="340" height="28" fill="#2D2D44" opacity="0.7"/>
  <rect x="30" y="126" width="340" height="28" fill="#363652" opacity="0.5"/>
  <rect x="30" y="154" width="340" height="28" fill="#2D2D44" opacity="0.7"/>
  <rect x="30" y="182" width="340" height="28" fill="#363652" opacity="0.5"/>
  
  <!-- Row Data -->
  <text x="45" y="88" font-family="Arial" font-size="11" fill="white">iPhone 13</text>
  <text x="130" y="88" font-family="Arial" font-size="11" fill="#8BE9FD">Electronics</text>
  <text x="215" y="88" font-family="Arial" font-size="11" fill="#F1FA8C">$1,245,000</text>
  <text x="285" y="88" font-family="Arial" font-size="11" fill="#50FA7B">+32.5%</text>
  
  <text x="45" y="116" font-family="Arial" font-size="11" fill="white">MacBook Pro</text>
  <text x="130" y="116" font-family="Arial" font-size="11" fill="#8BE9FD">Electronics</text>
  <text x="215" y="116" font-family="Arial" font-size="11" fill="#F1FA8C">$980,500</text>
  <text x="285" y="116" font-family="Arial" font-size="11" fill="#50FA7B">+18.2%</text>
  
  <text x="45" y="144" font-family="Arial" font-size="11" fill="white">Nike Air Max</text>
  <text x="130" y="144" font-family="Arial" font-size="11" fill="#FF79C6">Footwear</text>
  <text x="215" y="144" font-family="Arial" font-size="11" fill="#F1FA8C">$643,200</text>
  <text x="285" y="144" font-family="Arial" font-size="11" fill="#50FA7B">+12.8%</text>
  
  <text x="45" y="172" font-family="Arial" font-size="11" fill="white">Dell XPS</text>
  <text x="130" y="172" font-family="Arial" font-size="11" fill="#8BE9FD">Electronics</text>
  <text x="215" y="172" font-family="Arial" font-size="11" fill="#F1FA8C">$521,750</text>
  <text x="285" y="172" font-family="Arial" font-size="11" fill="#FF5555">-2.4%</text>
  
  <text x="45" y="200" font-family="Arial" font-size="11" fill="white">Levi's 501</text>
  <text x="130" y="200" font-family="Arial" font-size="11" fill="#BD93F9">Apparel</text>
  <text x="215" y="200" font-family="Arial" font-size="11" fill="#F1FA8C">$487,300</text>
  <text x="285" y="200" font-family="Arial" font-size="11" fill="#50FA7B">+8.1%</text>
  
  <!-- Statistics Indicators -->
  <circle cx="325" cy="88" r="8" fill="#50FA7B" opacity="0.7"/>
  <circle cx="325" cy="116" r="7" fill="#50FA7B" opacity="0.7"/>
  <circle cx="325" cy="144" r="6" fill="#50FA7B" opacity="0.7"/>
  <circle cx="325" cy="172" r="5" fill="#FF5555" opacity="0.7"/>
  <circle cx="325" cy="200" r="5.5" fill="#50FA7B" opacity="0.7"/>
  
  <!-- Title -->
  <text x="30" y="25" font-family="Arial" font-weight="bold" font-size="14" fill="white">Sales Performance Analysis</text>
</svg>