<?xml version="1.0" encoding="UTF-8" standalone="no"?>
<svg width="400" height="250" viewBox="0 0 400 250" xmlns="http://www.w3.org/2000/svg">
  <!-- Background -->
  <rect x="0" y="0" width="400" height="250" rx="15" ry="15" fill="#1E1E2E" opacity="0.8"/>
  
  <!-- Chart Area Background -->
  <rect x="50" y="40" width="320" height="170" rx="5" ry="5" fill="#2D2D44" stroke="#4F8BF9" stroke-width="1" opacity="0.9"/>
  
  <!-- Chart Grid Lines (Horizontal) -->
  <line x1="50" y1="40" x2="50" y2="210" stroke="#6272A4" stroke-width="1" opacity="0.5"/>
  <line x1="114" y1="40" x2="114" y2="210" stroke="#6272A4" stroke-width="0.5" opacity="0.3"/>
  <line x1="178" y1="40" x2="178" y2="210" stroke="#6272A4" stroke-width="0.5" opacity="0.3"/>
  <line x1="242" y1="40" x2="242" y2="210" stroke="#6272A4" stroke-width="0.5" opacity="0.3"/>
  <line x1="306" y1="40" x2="306" y2="210" stroke="#6272A4" stroke-width="0.5" opacity="0.3"/>
  <line x1="370" y1="40" x2="370" y2="210" stroke="#6272A4" stroke-width="1" opacity="0.5"/>
  
  <!-- Chart Grid Lines (Vertical) -->
  <line x1="50" y1="40" x2="370" y2="40" stroke="#6272A4" stroke-width="1" opacity="0.5"/>
  <line x1="50" y1="82.5" x2="370" y2="82.5" stroke="#6272A4" stroke-width="0.5" opacity="0.3"/>
  <line x1="50" y1="125" x2="370" y2="125" stroke="#6272A4" stroke-width="0.5" opacity="0.3"/>
  <line x1="50" y1="167.5" x2="370" y2="167.5" stroke="#6272A4" stroke-width="0.5" opacity="0.3"/>
  <line x1="50" y1="210" x2="370" y2="210" stroke="#6272A4" stroke-width="1" opacity="0.5"/>
  
  <!-- X-Axis Labels -->
  <text x="82" y="225" font-family="Arial" font-size="10" fill="white" text-anchor="middle">Q1</text>
  <text x="146" y="225" font-family="Arial" font-size="10" fill="white" text-anchor="middle">Q2</text>
  <text x="210" y="225" font-family="Arial" font-size="10" fill="white" text-anchor="middle">Q3</text>
  <text x="274" y="225" font-family="Arial" font-size="10" fill="white" text-anchor="middle">Q4</text>
  <text x="338" y="225" font-family="Arial" font-size="10" fill="white" text-anchor="middle">Q1</text>
  
  <!-- Y-Axis Labels -->
  <text x="40" y="210" font-family="Arial" font-size="9" fill="white" text-anchor="end">0</text>
  <text x="40" y="167.5" font-family="Arial" font-size="9" fill="white" text-anchor="end">25</text>
  <text x="40" y="125" font-family="Arial" font-size="9" fill="white" text-anchor="end">50</text>
  <text x="40" y="82.5" font-family="Arial" font-size="9" fill="white" text-anchor="end">75</text>
  <text x="40" y="40" font-family="Arial" font-size="9" fill="white" text-anchor="end">100</text>
  
  <!-- Chart Title -->
  <text x="200" y="25" font-family="Arial" font-weight="bold" font-size="14" fill="white" text-anchor="middle">Quarterly Performance Metrics</text>
  
  <!-- Chart Subtitle -->
  <text x="200" y="240" font-family="Arial" font-size="10" fill="#BFBFBF" text-anchor="middle">Fiscal Year 2024-2025</text>
  
  <!-- Bar Chart - Electronics -->
  <rect x="60" y="120" width="20" height="90" fill="#8BE9FD" opacity="0.8" rx="2" ry="2"/>
  <rect x="124" y="95" width="20" height="115" fill="#8BE9FD" opacity="0.8" rx="2" ry="2"/>
  <rect x="188" y="80" width="20" height="130" fill="#8BE9FD" opacity="0.8" rx="2" ry="2"/>
  <rect x="252" y="65" width="20" height="145" fill="#8BE9FD" opacity="0.8" rx="2" ry="2"/>
  <rect x="316" y="55" width="20" height="155" fill="#8BE9FD" opacity="0.8" rx="2" ry="2"/>
  
  <!-- Bar Chart - Apparel -->
  <rect x="84" y="150" width="20" height="60" fill="#BD93F9" opacity="0.8" rx="2" ry="2"/>
  <rect x="148" y="140" width="20" height="70" fill="#BD93F9" opacity="0.8" rx="2" ry="2"/>
  <rect x="212" y="135" width="20" height="75" fill="#BD93F9" opacity="0.8" rx="2" ry="2"/>
  <rect x="276" y="125" width="20" height="85" fill="#BD93F9" opacity="0.8" rx="2" ry="2"/>
  <rect x="340" y="115" width="20" height="95" fill="#BD93F9" opacity="0.8" rx="2" ry="2"/>
  
  <!-- Line Chart - Growth Trend -->
  <polyline points="82,170 146,155 210,130 274,110 338,100" 
            fill="none" stroke="#50FA7B" stroke-width="3" stroke-linecap="round" stroke-linejoin="round"/>
  
  <!-- Data Points -->
  <circle cx="82" cy="170" r="4" fill="#50FA7B" stroke="#2D2D44" stroke-width="1"/>
  <circle cx="146" cy="155" r="4" fill="#50FA7B" stroke="#2D2D44" stroke-width="1"/>
  <circle cx="210" cy="130" r="4" fill="#50FA7B" stroke="#2D2D44" stroke-width="1"/>
  <circle cx="274" cy="110" r="4" fill="#50FA7B" stroke="#2D2D44" stroke-width="1"/>
  <circle cx="338" cy="100" r="4" fill="#50FA7B" stroke="#2D2D44" stroke-width="1"/>
  
  <!-- Legend -->
  <rect x="280" y="50" width="12" height="12" fill="#8BE9FD" opacity="0.8" rx="2" ry="2"/>
  <text x="297" y="60" font-family="Arial" font-size="10" fill="white">Electronics</text>
  
  <rect x="280" y="65" width="12" height="12" fill="#BD93F9" opacity="0.8" rx="2" ry="2"/>
  <text x="297" y="75" font-family="Arial" font-size="10" fill="white">Apparel</text>
  
  <line x1="280" y1="86" x2="292" y2="86" stroke="#50FA7B" stroke-width="2"/>
  <circle cx="286" cy="86" r="3" fill="#50FA7B"/>
  <text x="297" y="90" font-family="Arial" font-size="10" fill="white">Growth %</text>
</svg>